<?xml version="1.0" encoding="UTF-8" standalone="no"?>
<svg
   xmlns:dc="http://purl.org/dc/elements/1.1/"
   xmlns:cc="http://creativecommons.org/ns#"
   xmlns:rdf="http://www.w3.org/1999/02/22-rdf-syntax-ns#"
   xmlns:svg="http://www.w3.org/2000/svg"
   xmlns="http://www.w3.org/2000/svg"
   xmlns:sodipodi="http://sodipodi.sourceforge.net/DTD/sodipodi-0.dtd"
   xmlns:inkscape="http://www.inkscape.org/namespaces/inkscape"
   version="1.1"
   id="svg2"
   xml:space="preserve"
   width="256.98666"
   height="256.98666"
   viewBox="0 0 256.98666 256.98666"
   sodipodi:docname="Ferrari.eps"><metadata
     id="metadata8"><rdf:RDF><cc:Work
         rdf:about=""><dc:format>image/svg+xml</dc:format><dc:type
           rdf:resource="http://purl.org/dc/dcmitype/StillImage" /></cc:Work></rdf:RDF></metadata><defs
     id="defs6" /><sodipodi:namedview
     pagecolor="#ffffff"
     bordercolor="#666666"
     borderopacity="1"
     objecttolerance="10"
     gridtolerance="10"
     guidetolerance="10"
     inkscape:pageopacity="0"
     inkscape:pageshadow="2"
     inkscape:window-width="640"
     inkscape:window-height="480"
     id="namedview4" /><g
     id="g10"
     inkscape:groupmode="layer"
     inkscape:label="ink_ext_XXXXXX"
     transform="matrix(1.3333333,0,0,-1.3333333,0,256.98667)"><g
       id="g12"
       transform="scale(0.1)"><path
         d="M 0,1927.44 H 1927.44 V 0 H 0 v 1927.44"
         style="fill:#ffffff;fill-opacity:1;fill-rule:evenodd;stroke:none"
         id="path14" /><path
         d="m 870.527,738.359 -3.332,-8.144 2.223,-14.809 7.586,-33.133 13.144,-43.687 10.922,-26.102 14.621,-33.316 10.372,-19.621 15.914,-28.879 19.066,-32.211 14.996,-20.73 12.586,-16.844 0.555,-9.254 -1.664,-7.594 -7.036,-2.773 -21.101,-1.114 -37.024,2.223 -30.539,3.887 -26.839,4.812 -32.582,9.258 -16.473,7.215 -10.922,4.812 -12.406,2.223 -14.25,-0.555 -7.59,-3.332 h -10.367 l -24.621,3.887 -14.067,4.813 -15.363,1.109 -24.434,0.559 -18.511,1.664 h -17.028 l -16.847,-1.11 -11.477,-4.812 -8.144,-2.223 -2.778,-3.887 0.555,-7.586 7.773,-12.593 14.625,-20.172 8.7,-3.703 13.699,-9.809 15.734,-8.703 17.031,-5.551 24.434,-0.554 21.844,2.218 18.511,4.258 15.731,5 6.668,-3.336 3.144,-6.476 5.555,-1.664 13.512,0.554 17.027,-1.113 8.703,-2.773 10.367,2.773 33.688,-4.258 22.953,-3.332 37.578,-8.144 27.395,-8.145 27.031,-9.258 23.875,-10.918 9.25,-6.664 24.63,-1.109 13.14,3.332 7.03,14.254 7.59,17.398 -2.22,14.071 -9.26,17.582 -12.4,25.546 -9.81,26.653 -7.22,29.988 -3.14,25.731 v 24.992 l 2.59,29.429 3.33,14.809 -3.89,12.59 -8.14,6.476 -16.292,12.036 -11.481,8.144 -2.219,15.734 -5.363,16.844 -10.187,16.477 -10.918,14.066 -13.7,13.145 -17.398,13.14 -19.625,14.625 -10.363,5 -10.368,3.145 -8.699,-1.481 -7.59,-5 v 0"
         style="fill:#231f20;fill-opacity:1;fill-rule:evenodd;stroke:none"
         id="path16" /><path
         d="m 870.527,738.359 -3.332,-8.144 2.223,-14.809 7.586,-33.133 13.144,-43.687 10.922,-26.102 14.621,-33.316 10.372,-19.621 15.914,-28.879 19.066,-32.211 14.996,-20.73 12.586,-16.844 0.555,-9.254 -1.664,-7.594 -7.036,-2.773 -21.101,-1.114 -37.024,2.223 -30.539,3.887 -26.839,4.812 -32.582,9.258 -16.473,7.215 -10.922,4.812 -12.406,2.223 -14.25,-0.555 -7.59,-3.332 h -10.367 l -24.621,3.887 -14.067,4.813 -15.363,1.109 -24.434,0.559 -18.511,1.664 h -17.028 l -16.847,-1.11 -11.477,-4.812 -8.144,-2.223 -2.778,-3.887 0.555,-7.586 7.773,-12.593 14.625,-20.172 8.7,-3.703 13.699,-9.809 15.734,-8.703 17.031,-5.551 24.434,-0.554 21.844,2.218 18.511,4.258 15.731,5 6.668,-3.336 3.144,-6.476 5.555,-1.664 13.512,0.554 17.027,-1.113 8.703,-2.773 10.367,2.773 33.688,-4.258 22.953,-3.332 37.578,-8.144 27.395,-8.145 27.031,-9.258 23.875,-10.918 9.25,-6.664 24.63,-1.109 13.14,3.332 7.03,14.254 7.59,17.398 -2.22,14.071 -9.26,17.582 -12.4,25.546 -9.81,26.653 -7.22,29.988 -3.14,25.731 v 24.992 l 2.59,29.429 3.33,14.809 -3.89,12.59 -8.14,6.476 -16.292,12.036 -11.481,8.144 -2.219,15.734 -5.363,16.844 -10.187,16.477 -10.918,14.066 -13.7,13.145 -17.398,13.14 -19.625,14.625 -10.363,5 -10.368,3.145 -8.699,-1.481 -7.59,-5 z"
         style="fill:none;stroke:#231f20;stroke-width:2.16;stroke-linecap:butt;stroke-linejoin:miter;stroke-miterlimit:2.6131;stroke-dasharray:none;stroke-opacity:1"
         id="path18" /><path
         d="m 807.219,1842.16 -0.184,-7.21 -7.59,-1.67 -9.808,1.29 -14.813,-3.14 -11.105,-3.52 -8.883,-0.55 -2.777,-3.89 3.144,-5.37 6.664,-1.48 6.297,1.85 7.215,3.15 7.406,0.37 15.735,-0.74 12.031,-3.7 14.254,-3.52 20.918,-9.44 1.851,-4.45 -2.222,-3.51 -9.809,-3.52 -5.926,-2.77 -10.551,-7.04 -16.105,-8.51 -19.621,-13.89 -22.395,-10.18 -17.773,-11.66 -16.106,-7.03 -15.179,-3.71 -13.324,-0.37 -18.329,-0.37 -7.035,-1.85 -4.07,-8.51 -3.149,-9.26 -3.515,-6.29 -8.887,-13.33 -8.515,-14.81 -5.739,-7.22 -0.554,-8.33 0.554,-11.66 v -12.4 l 7.59,-6.85 6.664,-3.52 7.961,0.56 12.957,3.52 14.625,4.44 19.809,7.96 7.957,-0.37 1.851,-5 -1.851,-4.82 -6.664,-3.51 -20.176,-7.59 -15.18,-4.44 -2.961,-5 -0.558,-5.37 5,-4.45 10.55,-1.29 h 8.516 l 10.734,0.37 11.665,2.78 16.843,8.88 11.11,2.23 9.437,1.85 7.219,-2.41 10.551,0.56 10.367,-1.3 8.515,-5 13.329,-1.29 17.398,-5.38 9.441,-1.29 14.625,2.59 18.696,-1.3 8.144,-3.14 4.446,-7.59 -0.93,-9.81 -2.219,-12.03 -4.445,-13.88 -6.293,-17.4 -6.293,-19.07 -6.664,-17.4 -4.442,-12.03 -15.179,-23.7 -18.324,-23.14 -16.477,-22.77 -20.918,-20.91 -19.25,-16.29 -12.219,-12.96 -6.476,-21.29 -9.071,-10.73 -11.476,-8.15 -13.887,-11.48 -21.285,-12.95 -17.953,-9.07 -11.477,-13.14 -8.148,-10.56 -8.145,-4.99 -11.476,-5.75 -7.407,1.67 -14.621,6.67 -16.289,10.55 -23.879,10.55 -26.839,14.07 -13.887,10.55 -17.215,13.88 -18.879,15.55 -20.363,7.4 -17.953,3.15 -22.957,-4.81 -16.285,-9.07 -14.071,-9.81 -7.219,-17.96 -5,-13.88 -5.738,-21.29 -6.476,-12.95 -6.481,-19.81 -0.926,-23.7 -5.738,-13.88 -6.48,-22.03 -5.739,-22.03 -10.55,-20.54 -5.739,-20.37 -3.332,-25.36 -9.07,-21.28 -5.738,-12.22 -0.739,-12.22 -0.742,-20.54 v -35.915 l -4.07,-14.809 2.406,-12.957 -0.926,-21.289 7.407,-17.027 5.734,-4.074 10.551,3.332 9.812,8.887 14.067,17.027 12.218,19.621 4.813,16.293 -3.145,13.141 -4.074,16.29 -4.996,19.62 -4.816,20.55 -2.59,15.55 v 14.62 l 3.332,16.48 8.144,25.17 8.145,13.14 7.406,6.67 5.735,8.88 10.554,0.93 4.996,3.14 7.407,6.67 8.144,7.22 7.402,9.81 3.149,11.48 2.594,9.81 0.738,13.14 2.406,11.48 5.738,7.22 5.739,1.66 7.402,-2.41 10.555,-5.73 11.472,-13.15 12.223,-17.95 13.879,-16.29 14.809,-13.14 13.144,-10.56 12.957,-5.73 4.074,-8.15 -4.074,-4.07 -13.883,3.15 -19.621,1.66 -25.359,5 -24.434,4.81 -29.433,0.93 -17.215,-0.93 -13.145,-8.14 -13.883,-12.22 -11.476,-19.62 -8.887,-22.21 -0.922,-16.3 4.996,-29.43 11.477,-37.57 5.738,-29.434 7.219,-28.695 5,-20.172 2.406,-18.886 6.481,-21.286 4.996,-32.578 4.808,-11.48 12.407,-9.809 11.476,-11.476 12.957,-19.625 9.071,-22.95 13.882,-20.363 20.364,-19.621 14.808,-9.07 9.813,-0.739 8.14,2.407 5,11.476 5.551,9.809 3.336,13.883 v 18.882 12.957 l -4.074,9.071 v 0 c -0.738,0 -0.738,5.738 -0.738,6.48 v 0 l -1.668,5.739 -6.664,9.808 -12.219,12.219 -22.766,9.808 -8.328,2.594 -1.484,13.883 0.742,8.887 -15.551,17.953 -9.809,22.957 -8.148,32.578 -6.66,30.172 -11.293,23.691 -4.07,28.69 6.476,17.22 11.477,6.48 h 8.886 l 13.141,-11.48 18.883,-11.48 19.621,-7.21 47.387,-22.96 22.953,-13.142 v -12.219 l 21.101,-12.215 27.028,-9.07 h 31.097 25.36 l -4.071,-10.551 -2.406,-5.738 7.219,-13.696 13.883,-20.551 22.215,-22.027 26.839,-29.433 22.954,-20.364 42.945,-32.945 34.801,-18.699 26.101,-13.879 33.504,-22.77 30.914,-22.031 26.656,-22.578 27.762,-37.578 1.297,-15.739 6.293,-16.285 17.03,-12.218 15.55,-6.11 9.63,1.297 7.59,7.402 10.92,11.664 2.59,15.735 12.96,22.394 2.77,17.219 2.04,19.067 1.3,14.992 4.25,9.437 8.7,4.258 h 8.33 l 0.56,-6.293 -6.11,-6.664 -5.37,-14.434 -4.07,-8.886 v -10.922 l -1.48,-23.137 -3.33,-11.664 -10.18,-17.586 -13.7,-22.582 -13.7,-24.621 -8.15,-32.023 -4.07,-33.508 4.07,-37.391 5.37,-21.844 12.96,-28.687 16.47,-34.059 12.96,-26.66 17.77,-27.949 21.11,-25.918 4.07,-8.883 v -6.109 l -2.78,-7.59 -7.4,-12.219 -11.66,-16.289 -23.88,-30.726 -23.88,-25.918 -21.85,-23.879 -9.44,-5.551 -19.25,-7.406 -11.477,-10.922 -6.11,-12.403 -13.695,-17.027 -15.547,-17.031 -19.066,-19.809 -11.664,-20.3592 -6.848,-20.5469 -4.07,-17.0312 0.738,-13.6992 8.144,-8.6992 h 14.997 14.992 l 12.957,1.2968 13.512,8.1446 17.767,8.1445 2.78,6.8476 h 6.11 l 9.44,4.0704 8.89,8.332 4.81,32.582 -2.78,6.8478 -1.29,6.848 4.81,-1.293 5.36,-1.485 5.56,4.074 8.88,5.555 9.45,12.215 11.66,16.477 6.11,14.992 1.29,12.218 7.59,5.551 10.92,6.11 8.89,5.371 7.4,14.988 15.74,16.477 29.43,27.21 22.4,14.997 22.58,12.402 5.37,5.367 2.04,5.555 4.81,6.105 -3.34,8.149 -0.74,14.992 -2.96,14.066 -3.51,8.145 -7.78,13.332 -12.4,15.547 -6.11,11.664 -1.3,12.215 v 16.476 l 2.78,9.438 7.41,25.359 7.58,12.223 8.15,4.808 14.99,9.442 17.77,15.176 23.88,20.367 16.29,17.027 16.48,19.066 17.03,19.25 12.22,21.661 10.18,18.511 9.62,21.102 6.85,23.324 2.04,21.656 1.29,16.477 5.55,5.367 6.11,1.481 5.38,-3.516 4.81,-11.477 1.29,-15.734 2.22,-14.992 -1.48,-10.184 -1.29,-15.734 v -33.504 l 4.07,-26.473 4.81,-6.847 4.07,0.554 2.04,4.813 -2.78,10.922 v 18.511 l 5.56,15.547 2.59,22.586 2.78,15.735 3.51,7.402 h 4.08 l 3.33,-3.328 3.33,-12.961 2.78,-12.402 -1.3,-19.622 -4.07,-26.656 -12.41,-25.914 -11.47,-24.621 -6.85,-21.102 -1.3,-12.957 1.3,-14.996 4.81,-14.437 h 8.89 l 4.62,6.293 -2.59,6.847 -2.03,12.219 8.14,10.922 9.45,12.957 6.29,12.219 14.99,23.879 12.22,21.844 5.37,23.878 4.81,31.469 v 31.285 l -6.11,21.844 -12.22,17.027 -1.48,8.145 5.56,2.777 6.84,-3.332 8.89,-10.922 10.92,-19.804 4.63,-23.141 2.77,-30.726 6.85,-21.293 0.74,-0.551 9.44,-21.106 6.11,-2.222 2.78,5.558 -0.74,3.328 -4.63,15.739 -0.74,15.73 0.74,23.141 4.07,25.914 v 12.961 l -1.48,10.922 -10.92,21.839 -9.44,15.735 3.33,6.109 12.96,2.778 17.77,8.144 19.07,10.18 17.03,14.992 21.84,29.434 12.4,24.433 10.18,23.324 3.34,37.395 0.74,33.504 -5.37,41.465 -6.3,29.984 -5.36,30.728 -3.34,32.03 2.59,20.36 5.56,25.36 11.48,25.17 16.47,25.92 6.11,16.47 1.29,8.15 -5.36,7.4 -7.59,3.52 v -11.66 l -6.11,-6.85 -10.92,-16.29 -6.11,-4.07 -17.03,-20.55 -6.85,-10.92 -8.15,-18.33 -8.88,-1.48 -8.14,4.82 -4.82,21.84 1.3,25.17 5.55,23.33 13.51,21.84 27.4,40.91 16.29,33.32 2.04,23.32 -2.59,7.4 -4.82,-4.81 -8.14,-20.36 -12.41,-20.55 -18.32,-14.99 -21.1,-20.37 -31.47,-36.83 -6.11,0.56 -2.04,6.29 -0.74,14.99 2.04,27.95 9.62,31.29 17.03,34.8 22.59,27.95 27.95,23.88 2.59,5.55 -3.33,2.59 -14.25,-7.4 -11.67,-7.59 -19.8,-17.03 -24.62,-21.84 -17.59,-23.88 -17.21,-31.29 -9.45,-25.36 -2.77,-25.17 -1.3,-34.06 8.15,-35.54 8.15,-30.73 15.73,-48.31 10.18,-57.945 6.11,-44.238 v -23.879 l -2.59,-25.176 -4.07,-20.547 -7.6,-23.136 -28.69,-36.098 -29.25,-26.656 -37.57,-21.106 -36.1,-2.035 -4.81,17.59 -12.96,25.355 -17.77,24.438 -11.66,14.437 -15.55,21.102 -33.51,32.027 -34.06,27.95 -14.99,11.664 -47.02,31.836 -67.56,56.647 -36.84,45.72 -40.35,66.08 -10.92,39.62 2.77,24.61 5.55,4.82 14.26,-9.63 22.58,-10.92 18.33,0.74 21.1,-9.62 22.58,-13.7 11.66,-9.44 15,-10.37 15.55,-2.03 3.51,6.84 -4.07,0.75 -4.81,-2.04 -7.59,4.81 -6.66,10.18 -9.63,15.74 -18.51,17.02 -18.33,6.85 -10.17,2.04 2.03,5.37 h 14.25 l 16.48,-5.37 23.88,-15.73 10.92,-4.82 4.07,5.56 -6.85,9.44 -18.51,16.47 -28.69,15 -34.62,13.51 -6.85,5.55 6.85,4.81 15.55,-7.59 28.7,-4.8 30.72,-12.22 16.3,-8.15 28.68,-4.07 20.55,2.78 11.48,5.36 15.73,9.63 6.85,6.67 0.74,4.8 -6.29,-0.55 -6.11,-6.29 -20.36,-6.67 -17.77,-2.77 -15,2.03 -14.43,11.48 -12.96,15.18 -15.55,11.47 -23.33,4.82 -22.39,7.59 -9.63,6.11 0.74,5.36 8.89,-1.29 h 19.8 l 19.81,1.29 h 20.36 l 10.92,2.04 8.89,-7.4 14.25,-3.52 h 11.66 l 5.37,4.07 -9.44,2.78 -11.66,7.59 -12.22,11.47 -19.8,10.37 -16.3,2.04 -14.99,2.03 -5.55,3.34 10.92,6.11 h 17.77 l 13.7,-4.08 13.51,-6.85 21.84,-9.44 21.85,-0.74 11.66,5.56 3.33,7.4 -8.88,4.07 -18.33,0.74 -15.74,5.37 -13.69,11.66 -14.99,7.59 -19.81,3.33 -17.03,6.11 -7.41,9.63 1.3,4.81 10.92,-2.22 13.7,-4.07 8.14,-6.11 11.66,-1.3 1.3,6.11 -12.22,9.63 -3.51,8.7 16.47,-2.6 15.55,-8.14 19.81,-2.22 7.58,-14.26 20.37,-12.21 1.11,0.18 4.44,1.85 5.37,3.34 -2.59,4.07 -7.59,-0.56 -6.85,9.44 -13.7,21.11 -23.88,21.28 -24.43,10.93 -6.85,8.14 -14.99,17.77 -13.7,7.41 -2.04,6.84 6.11,4.08 14.44,-3.33 28.51,-8.15 13.7,-4.82 8.88,-12.39 14.25,-7.41 h 10.92 l 14.44,-4.07 15.74,2.78 6.1,5.36 -8.88,7.59 -12.96,3.33 -14.99,2.04 -8.89,7.59 -11.66,17.03 -2.78,10.92 -14.99,13.52 -16.29,10.36 -18.51,11.48 -20.36,19.06 -1.3,5.55 h 4.63 l 26.66,-21.09 27.21,-15.74 14.43,-10.92 18.33,-17.03 16.47,-8.89 9.44,-2.77 4.82,7.59 -6.85,2.59 -14.26,12.96 -4.07,14.43 -14.99,16.3 -12.4,10.36 -6.11,15.55 -21.1,31.47 -28.69,25.17 -1.3,8.15 10.18,-1.3 14.44,-7.4 23.13,-9.63 23.88,-1.29 17.78,-8.33 19.06,-3.34 16.29,4.82 -1.29,6.85 -18.52,4.07 -16.29,7.4 -32.76,15.73 -17.77,9.63 -9.44,11.48 3.33,4.07 4.81,-3.33 7.41,-2.78 9.62,-0.74 h 15.74 l 13.51,1.48 20.55,1.3 15.73,-6.11 16.29,-11.66 6.85,-2.04 0.74,6.11 -5.55,5.56 -16.29,14.99 -25.36,12.95 -18.33,2.04 -34.8,2.04 -8.14,9.62 -17.77,17.77 -19.81,13.51 -7.4,6.86 6.11,4.81 9.44,-4.08 17.03,-8.88 19.25,-6.85 25.91,-6.11 h 22.4 l 18.51,-20.54 15,-8.89 5.37,5.55 -20.37,29.99 -32.02,23.14 -26.66,6.29 -22.58,23.7 -19.81,11.66 -27.21,6.85 15,12.95 26.65,8.89 19.81,6.11 4.63,6.11 -2.6,4.81 -10.92,2.78 -10.36,2.03 -77.01,-1.48 -13.69,15.18 -15.55,10.18 -19.81,8.89 -25.918,4.07 h -22.398 l -6.106,8.14 -21.105,22.59 -25.359,23.14 -15.551,-25.92 -0.738,-8.14 7.402,-9.63 0.742,-8.14 -5.367,-4.82 -17.215,-1.29 -31.285,8.89 -30.727,6.66 -14.254,-0.56 -23.324,-4.81 2.778,-8.14 12.957,0.55 5.367,-0.93 v 0"
         style="fill:#231f20;fill-opacity:1;fill-rule:evenodd;stroke:none"
         id="path20" /><path
         d="m 807.219,1842.16 -0.184,-7.21 -7.59,-1.67 -9.808,1.29 -14.813,-3.14 -11.105,-3.52 -8.883,-0.55 -2.777,-3.89 3.144,-5.37 6.664,-1.48 6.297,1.85 7.215,3.15 7.406,0.37 15.735,-0.74 12.031,-3.7 14.254,-3.52 20.918,-9.44 1.851,-4.45 -2.222,-3.51 -9.809,-3.52 -5.926,-2.77 -10.551,-7.04 -16.105,-8.51 -19.621,-13.89 -22.395,-10.18 -17.773,-11.66 -16.106,-7.03 -15.179,-3.71 -13.324,-0.37 -18.329,-0.37 -7.035,-1.85 -4.07,-8.51 -3.149,-9.26 -3.515,-6.29 -8.887,-13.33 -8.515,-14.81 -5.739,-7.22 -0.554,-8.33 0.554,-11.66 v -12.4 l 7.59,-6.85 6.664,-3.52 7.961,0.56 12.957,3.52 14.625,4.44 19.809,7.96 7.957,-0.37 1.851,-5 -1.851,-4.82 -6.664,-3.51 -20.176,-7.59 -15.18,-4.44 -2.961,-5 -0.558,-5.37 5,-4.45 10.55,-1.29 h 8.516 l 10.734,0.37 11.665,2.78 16.843,8.88 11.11,2.23 9.437,1.85 7.219,-2.41 10.551,0.56 10.367,-1.3 8.515,-5 13.329,-1.29 17.398,-5.38 9.441,-1.29 14.625,2.59 18.696,-1.3 8.144,-3.14 4.446,-7.59 -0.93,-9.81 -2.219,-12.03 -4.445,-13.88 -6.293,-17.4 -6.293,-19.07 -6.664,-17.4 -4.442,-12.03 -15.179,-23.7 -18.324,-23.14 -16.477,-22.77 -20.918,-20.91 -19.25,-16.29 -12.219,-12.96 -6.476,-21.29 -9.071,-10.73 -11.476,-8.15 -13.887,-11.48 -21.285,-12.95 -17.953,-9.07 -11.477,-13.14 -8.148,-10.56 -8.145,-4.99 -11.476,-5.75 -7.407,1.67 -14.621,6.67 -16.289,10.55 -23.879,10.55 -26.839,14.07 -13.887,10.55 -17.215,13.88 -18.879,15.55 -20.363,7.4 -17.953,3.15 -22.957,-4.81 -16.285,-9.07 -14.071,-9.81 -7.219,-17.96 -5,-13.88 -5.738,-21.29 -6.476,-12.95 -6.481,-19.81 -0.926,-23.7 -5.738,-13.88 -6.48,-22.03 -5.739,-22.03 -10.55,-20.54 -5.739,-20.37 -3.332,-25.36 -9.07,-21.28 -5.738,-12.22 -0.739,-12.22 -0.742,-20.54 v -35.915 l -4.07,-14.809 2.406,-12.957 -0.926,-21.289 7.407,-17.027 5.734,-4.074 10.551,3.332 9.812,8.887 14.067,17.027 12.218,19.621 4.813,16.293 -3.145,13.141 -4.074,16.29 -4.996,19.62 -4.816,20.55 -2.59,15.55 v 14.62 l 3.332,16.48 8.144,25.17 8.145,13.14 7.406,6.67 5.735,8.88 10.554,0.93 4.996,3.14 7.407,6.67 8.144,7.22 7.402,9.81 3.149,11.48 2.594,9.81 0.738,13.14 2.406,11.48 5.738,7.22 5.739,1.66 7.402,-2.41 10.555,-5.73 11.472,-13.15 12.223,-17.95 13.879,-16.29 14.809,-13.14 13.144,-10.56 12.957,-5.73 4.074,-8.15 -4.074,-4.07 -13.883,3.15 -19.621,1.66 -25.359,5 -24.434,4.81 -29.433,0.93 -17.215,-0.93 -13.145,-8.14 -13.883,-12.22 -11.476,-19.62 -8.887,-22.21 -0.922,-16.3 4.996,-29.43 11.477,-37.57 5.738,-29.434 7.219,-28.695 5,-20.172 2.406,-18.886 6.481,-21.286 4.996,-32.578 4.808,-11.48 12.407,-9.809 11.476,-11.476 12.957,-19.625 9.071,-22.95 13.882,-20.363 20.364,-19.621 14.808,-9.07 9.813,-0.739 8.14,2.407 5,11.476 5.551,9.809 3.336,13.883 v 18.882 12.957 l -4.074,9.071 v 0 c -0.738,0 -0.738,5.738 -0.738,6.48 v 0 l -1.668,5.739 -6.664,9.808 -12.219,12.219 -22.766,9.808 -8.328,2.594 -1.484,13.883 0.742,8.887 -15.551,17.953 -9.809,22.957 -8.148,32.578 -6.66,30.172 -11.293,23.691 -4.07,28.69 6.476,17.22 11.477,6.48 h 8.886 l 13.141,-11.48 18.883,-11.48 19.621,-7.21 47.387,-22.96 22.953,-13.142 v -12.219 l 21.101,-12.215 27.028,-9.07 h 31.097 25.36 l -4.071,-10.551 -2.406,-5.738 7.219,-13.696 13.883,-20.551 22.215,-22.027 26.839,-29.433 22.954,-20.364 42.945,-32.945 34.801,-18.699 26.101,-13.879 33.504,-22.77 30.914,-22.031 26.656,-22.578 27.762,-37.578 1.297,-15.739 6.293,-16.285 17.03,-12.218 15.55,-6.11 9.63,1.297 7.59,7.402 10.92,11.664 2.59,15.735 12.96,22.394 2.77,17.219 2.04,19.067 1.3,14.992 4.25,9.437 8.7,4.258 h 8.33 l 0.56,-6.293 -6.11,-6.664 -5.37,-14.434 -4.07,-8.886 v -10.922 l -1.48,-23.137 -3.33,-11.664 -10.18,-17.586 -13.7,-22.582 -13.7,-24.621 -8.15,-32.023 -4.07,-33.508 4.07,-37.391 5.37,-21.844 12.96,-28.687 16.47,-34.059 12.96,-26.66 17.77,-27.949 21.11,-25.918 4.07,-8.883 v -6.109 l -2.78,-7.59 -7.4,-12.219 -11.66,-16.289 -23.88,-30.726 -23.88,-25.918 -21.85,-23.879 -9.44,-5.551 -19.25,-7.406 -11.477,-10.922 -6.11,-12.403 -13.695,-17.027 -15.547,-17.031 -19.066,-19.809 -11.664,-20.3592 -6.848,-20.5469 -4.07,-17.0312 0.738,-13.6992 8.144,-8.6992 h 14.997 14.992 l 12.957,1.2968 13.512,8.1446 17.767,8.1445 2.78,6.8476 h 6.11 l 9.44,4.0704 8.89,8.332 4.81,32.582 -2.78,6.8478 -1.29,6.848 4.81,-1.293 5.36,-1.485 5.56,4.074 8.88,5.555 9.45,12.215 11.66,16.477 6.11,14.992 1.29,12.218 7.59,5.551 10.92,6.11 8.89,5.371 7.4,14.988 15.74,16.477 29.43,27.21 22.4,14.997 22.58,12.402 5.37,5.367 2.04,5.555 4.81,6.105 -3.34,8.149 -0.74,14.992 -2.96,14.066 -3.51,8.145 -7.78,13.332 -12.4,15.547 -6.11,11.664 -1.3,12.215 v 16.476 l 2.78,9.438 7.41,25.359 7.58,12.223 8.15,4.808 14.99,9.442 17.77,15.176 23.88,20.367 16.29,17.027 16.48,19.066 17.03,19.25 12.22,21.661 10.18,18.511 9.62,21.102 6.85,23.324 2.04,21.656 1.29,16.477 5.55,5.367 6.11,1.481 5.38,-3.516 4.81,-11.477 1.29,-15.734 2.22,-14.992 -1.48,-10.184 -1.29,-15.734 v -33.504 l 4.07,-26.473 4.81,-6.847 4.07,0.554 2.04,4.813 -2.78,10.922 v 18.511 l 5.56,15.547 2.59,22.586 2.78,15.735 3.51,7.402 h 4.08 l 3.33,-3.328 3.33,-12.961 2.78,-12.402 -1.3,-19.622 -4.07,-26.656 -12.41,-25.914 -11.47,-24.621 -6.85,-21.102 -1.3,-12.957 1.3,-14.996 4.81,-14.437 h 8.89 l 4.62,6.293 -2.59,6.847 -2.03,12.219 8.14,10.922 9.45,12.957 6.29,12.219 14.99,23.879 12.22,21.844 5.37,23.878 4.81,31.469 v 31.285 l -6.11,21.844 -12.22,17.027 -1.48,8.145 5.56,2.777 6.84,-3.332 8.89,-10.922 10.92,-19.804 4.63,-23.141 2.77,-30.726 6.85,-21.293 0.74,-0.551 9.44,-21.106 6.11,-2.222 2.78,5.558 -0.74,3.328 -4.63,15.739 -0.74,15.73 0.74,23.141 4.07,25.914 v 12.961 l -1.48,10.922 -10.92,21.839 -9.44,15.735 3.33,6.109 12.96,2.778 17.77,8.144 19.07,10.18 17.03,14.992 21.84,29.434 12.4,24.433 10.18,23.324 3.34,37.395 0.74,33.504 -5.37,41.465 -6.3,29.984 -5.36,30.728 -3.34,32.03 2.59,20.36 5.56,25.36 11.48,25.17 16.47,25.92 6.11,16.47 1.29,8.15 -5.36,7.4 -7.59,3.52 v -11.66 l -6.11,-6.85 -10.92,-16.29 -6.11,-4.07 -17.03,-20.55 -6.85,-10.92 -8.15,-18.33 -8.88,-1.48 -8.14,4.82 -4.82,21.84 1.3,25.17 5.55,23.33 13.51,21.84 27.4,40.91 16.29,33.32 2.04,23.32 -2.59,7.4 -4.82,-4.81 -8.14,-20.36 -12.41,-20.55 -18.32,-14.99 -21.1,-20.37 -31.47,-36.83 -6.11,0.56 -2.04,6.29 -0.74,14.99 2.04,27.95 9.62,31.29 17.03,34.8 22.59,27.95 27.95,23.88 2.59,5.55 -3.33,2.59 -14.25,-7.4 -11.67,-7.59 -19.8,-17.03 -24.62,-21.84 -17.59,-23.88 -17.21,-31.29 -9.45,-25.36 -2.77,-25.17 -1.3,-34.06 8.15,-35.54 8.15,-30.73 15.73,-48.31 10.18,-57.945 6.11,-44.238 v -23.879 l -2.59,-25.176 -4.07,-20.547 -7.6,-23.136 -28.69,-36.098 -29.25,-26.656 -37.57,-21.106 -36.1,-2.035 -4.81,17.59 -12.96,25.355 -17.77,24.438 -11.66,14.437 -15.55,21.102 -33.51,32.027 -34.06,27.95 -14.99,11.664 -47.02,31.836 -67.56,56.647 -36.84,45.72 -40.35,66.08 -10.92,39.62 2.77,24.61 5.55,4.82 14.26,-9.63 22.58,-10.92 18.33,0.74 21.1,-9.62 22.58,-13.7 11.66,-9.44 15,-10.37 15.55,-2.03 3.51,6.84 -4.07,0.75 -4.81,-2.04 -7.59,4.81 -6.66,10.18 -9.63,15.74 -18.51,17.02 -18.33,6.85 -10.17,2.04 2.03,5.37 h 14.25 l 16.48,-5.37 23.88,-15.73 10.92,-4.82 4.07,5.56 -6.85,9.44 -18.51,16.47 -28.69,15 -34.62,13.51 -6.85,5.55 6.85,4.81 15.55,-7.59 28.7,-4.8 30.72,-12.22 16.3,-8.15 28.68,-4.07 20.55,2.78 11.48,5.36 15.73,9.63 6.85,6.67 0.74,4.8 -6.29,-0.55 -6.11,-6.29 -20.36,-6.67 -17.77,-2.77 -15,2.03 -14.43,11.48 -12.96,15.18 -15.55,11.47 -23.33,4.82 -22.39,7.59 -9.63,6.11 0.74,5.36 8.89,-1.29 h 19.8 l 19.81,1.29 h 20.36 l 10.92,2.04 8.89,-7.4 14.25,-3.52 h 11.66 l 5.37,4.07 -9.44,2.78 -11.66,7.59 -12.22,11.47 -19.8,10.37 -16.3,2.04 -14.99,2.03 -5.55,3.34 10.92,6.11 h 17.77 l 13.7,-4.08 13.51,-6.85 21.84,-9.44 21.85,-0.74 11.66,5.56 3.33,7.4 -8.88,4.07 -18.33,0.74 -15.74,5.37 -13.69,11.66 -14.99,7.59 -19.81,3.33 -17.03,6.11 -7.41,9.63 1.3,4.81 10.92,-2.22 13.7,-4.07 8.14,-6.11 11.66,-1.3 1.3,6.11 -12.22,9.63 -3.51,8.7 16.47,-2.6 15.55,-8.14 19.81,-2.22 7.58,-14.26 20.37,-12.21 1.11,0.18 4.44,1.85 5.37,3.34 -2.59,4.07 -7.59,-0.56 -6.85,9.44 -13.7,21.11 -23.88,21.28 -24.43,10.93 -6.85,8.14 -14.99,17.77 -13.7,7.41 -2.04,6.84 6.11,4.08 14.44,-3.33 28.51,-8.15 13.7,-4.82 8.88,-12.39 14.25,-7.41 h 10.92 l 14.44,-4.07 15.74,2.78 6.1,5.36 -8.88,7.59 -12.96,3.33 -14.99,2.04 -8.89,7.59 -11.66,17.03 -2.78,10.92 -14.99,13.52 -16.29,10.36 -18.51,11.48 -20.36,19.06 -1.3,5.55 h 4.63 l 26.66,-21.09 27.21,-15.74 14.43,-10.92 18.33,-17.03 16.47,-8.89 9.44,-2.77 4.82,7.59 -6.85,2.59 -14.26,12.96 -4.07,14.43 -14.99,16.3 -12.4,10.36 -6.11,15.55 -21.1,31.47 -28.69,25.17 -1.3,8.15 10.18,-1.3 14.44,-7.4 23.13,-9.63 23.88,-1.29 17.78,-8.33 19.06,-3.34 16.29,4.82 -1.29,6.85 -18.52,4.07 -16.29,7.4 -32.76,15.73 -17.77,9.63 -9.44,11.48 3.33,4.07 4.81,-3.33 7.41,-2.78 9.62,-0.74 h 15.74 l 13.51,1.48 20.55,1.3 15.73,-6.11 16.29,-11.66 6.85,-2.04 0.74,6.11 -5.55,5.56 -16.29,14.99 -25.36,12.95 -18.33,2.04 -34.8,2.04 -8.14,9.62 -17.77,17.77 -19.81,13.51 -7.4,6.86 6.11,4.81 9.44,-4.08 17.03,-8.88 19.25,-6.85 25.91,-6.11 h 22.4 l 18.51,-20.54 15,-8.89 5.37,5.55 -20.37,29.99 -32.02,23.14 -26.66,6.29 -22.58,23.7 -19.81,11.66 -27.21,6.85 15,12.95 26.65,8.89 19.81,6.11 4.63,6.11 -2.6,4.81 -10.92,2.78 -10.36,2.03 -77.01,-1.48 -13.69,15.18 -15.55,10.18 -19.81,8.89 -25.918,4.07 h -22.398 l -6.106,8.14 -21.105,22.59 -25.359,23.14 -15.551,-25.92 -0.738,-8.14 7.402,-9.63 0.742,-8.14 -5.367,-4.82 -17.215,-1.29 -31.285,8.89 -30.727,6.66 -14.254,-0.56 -23.324,-4.81 2.778,-8.14 12.957,0.55 5.367,-0.93 z"
         style="fill:none;stroke:#231f20;stroke-width:2.16;stroke-linecap:butt;stroke-linejoin:miter;stroke-miterlimit:2.6131;stroke-dasharray:none;stroke-opacity:1"
         id="path22" /><path
         d="m 889.965,1850.68 -1.481,15.73 -22.402,27.22 -6.848,2.03 -4.812,-6.85 0.738,-8.14 -7.586,-6.85 -0.742,-9.44 8.887,-4.81 12.402,-8.89 h 21.844 v 0"
         style="fill:#231f20;fill-opacity:1;fill-rule:evenodd;stroke:none"
         id="path24" /><path
         d="m 889.965,1850.68 -1.481,15.73 -22.402,27.22 -6.848,2.03 -4.812,-6.85 0.738,-8.14 -7.586,-6.85 -0.742,-9.44 8.887,-4.81 12.402,-8.89 h 21.844 z"
         style="fill:none;stroke:#231f20;stroke-width:2.16;stroke-linecap:butt;stroke-linejoin:miter;stroke-miterlimit:2.6131;stroke-dasharray:none;stroke-opacity:1"
         id="path26" /><path
         d="m 846.277,1868.45 0.555,1.3"
         style="fill:none;stroke:#231f20;stroke-width:2.16;stroke-linecap:butt;stroke-linejoin:miter;stroke-miterlimit:2.6131;stroke-dasharray:none;stroke-opacity:1"
         id="path28" /><path
         d="m 1080.07,989.184 -29.99,38.866 -25.92,38.14 -19.24,29.99 -7.408,20.54 -4.074,19.81 -4.813,13.51 -7.59,3.52 -7.402,-2.04 -2.59,-12.95 5.367,-22.59 12.953,-32.76 16.297,-26.47 18.5,-23.32 20.37,-20.37 12.22,-11.66 23.32,-12.216 v 0"
         style="fill:#ffffff;fill-opacity:1;fill-rule:evenodd;stroke:none"
         id="path30" /><path
         d="m 1080.07,989.184 -29.99,38.866 -25.92,38.14 -19.24,29.99 -7.408,20.54 -4.074,19.81 -4.813,13.51 -7.59,3.52 -7.402,-2.04 -2.59,-12.95 5.367,-22.59 12.953,-32.76 16.297,-26.47 18.5,-23.32 20.37,-20.37 12.22,-11.66 23.32,-12.216 z"
         style="fill:none;stroke:#231f20;stroke-width:2.16;stroke-linecap:butt;stroke-linejoin:miter;stroke-miterlimit:2.6131;stroke-dasharray:none;stroke-opacity:1"
         id="path32" /><path
         d="m 671.535,1685.38 -7.219,-10 -2.961,-10.18 1.293,-7.22 3.52,-2.22 10.18,2.22 7.59,4.26 5.367,5.37 2.965,9.99 -2.965,4.82 -6.477,5.37 -5.371,0.55 -5.922,-2.96 v 0"
         style="fill:#ffffff;fill-opacity:1;fill-rule:evenodd;stroke:none"
         id="path34" /><path
         d="m 671.535,1685.38 -7.219,-10 -2.961,-10.18 1.293,-7.22 3.52,-2.22 10.18,2.22 7.59,4.26 5.367,5.37 2.965,9.99 -2.965,4.82 -6.477,5.37 -5.371,0.55 -5.922,-2.96 z"
         style="fill:none;stroke:#231f20;stroke-width:2.16;stroke-linecap:butt;stroke-linejoin:miter;stroke-miterlimit:2.6131;stroke-dasharray:none;stroke-opacity:1"
         id="path36" /><path
         d="m 865.898,1712.22 h 8.332 l 7.774,2.96 0.555,7.77 -2.961,8.89 -3.516,8.33 -7.035,4.81 -9.07,1.67 -12.403,-0.56 -7.773,-6.48 -3.52,-7.21 2.41,-6.48 8.329,-4.82 8.882,-4.81 9.996,-4.07 v 0"
         style="fill:#ffffff;fill-opacity:1;fill-rule:evenodd;stroke:none"
         id="path38" /><path
         d="m 865.898,1712.22 h 8.332 l 7.774,2.96 0.555,7.77 -2.961,8.89 -3.516,8.33 -7.035,4.81 -9.07,1.67 -12.403,-0.56 -7.773,-6.48 -3.52,-7.21 2.41,-6.48 8.329,-4.82 8.882,-4.81 9.996,-4.07 z"
         style="fill:none;stroke:#231f20;stroke-width:2.16;stroke-linecap:butt;stroke-linejoin:miter;stroke-miterlimit:2.6131;stroke-dasharray:none;stroke-opacity:1"
         id="path40" /><path
         d="m 1533.22,986.961 -4.82,-4.813 0.93,-8.699 1.48,-15.547 1.67,-16.476 1.11,-14.254 -0.74,-16.289 -0.74,-18.141 -3.34,-16.289 -3.88,-14.254 -6.67,-13.883 -8.7,-14.253 -8.88,-13.883 -9.44,-12.774 -8.7,-11.476 -4.82,-8.7 -3.51,-7.96 0.74,-5.926 4.44,-2.035 8.33,2.035 16.29,15.551 14.25,16.66 9.44,13.328 8.33,15.551 5.56,14.25 4.81,16.293 3.52,19.066 0.37,8.699 v 17.77 17.031 l -2.78,17.215 -3.89,17.957 -4.81,14.992 -2.41,7.586 -3.14,1.668 v 0"
         style="fill:#ffffff;fill-opacity:1;fill-rule:evenodd;stroke:none"
         id="path42" /><path
         d="m 1533.22,986.961 -4.82,-4.813 0.93,-8.699 1.48,-15.547 1.67,-16.476 1.11,-14.254 -0.74,-16.289 -0.74,-18.141 -3.34,-16.289 -3.88,-14.254 -6.67,-13.883 -8.7,-14.253 -8.88,-13.883 -9.44,-12.774 -8.7,-11.476 -4.82,-8.7 -3.51,-7.96 0.74,-5.926 4.44,-2.035 8.33,2.035 16.29,15.551 14.25,16.66 9.44,13.328 8.33,15.551 5.56,14.25 4.81,16.293 3.52,19.066 0.37,8.699 v 17.77 17.031 l -2.78,17.215 -3.89,17.957 -4.81,14.992 -2.41,7.586 -3.14,1.668 z"
         style="fill:none;stroke:#231f20;stroke-width:2.16;stroke-linecap:butt;stroke-linejoin:miter;stroke-miterlimit:2.6131;stroke-dasharray:none;stroke-opacity:1"
         id="path44" /><path
         d="m 814.625,874.969 9.441,-10.551 31.094,-27.023 17.219,-15.364 15.363,-13.886 12.403,-11.661 2.406,-3.886 1.668,-2.778 -4.813,0.368 -12.402,7.781 -20.922,13.883 -32.394,21.836 -13.141,8.886 -13.883,10.922 -15.176,13.887 -11.109,8.699 -13.328,12.957 -8.699,9.07 -5.368,8.329 -2.039,9.996 0.371,9.257 3.52,3.516 6.109,-0.367 9.621,-5.738 10.368,-9.997 7.589,-9.257 8.145,-8.145 7.961,-9.812 9.996,-10.922 v 0"
         style="fill:#ffffff;fill-opacity:1;fill-rule:evenodd;stroke:none"
         id="path46" /><path
         d="m 814.625,874.969 9.441,-10.551 31.094,-27.023 17.219,-15.364 15.363,-13.886 12.403,-11.661 2.406,-3.886 1.668,-2.778 -4.813,0.368 -12.402,7.781 -20.922,13.883 -32.394,21.836 -13.141,8.886 -13.883,10.922 -15.176,13.887 -11.109,8.699 -13.328,12.957 -8.699,9.07 -5.368,8.329 -2.039,9.996 0.371,9.257 3.52,3.516 6.109,-0.367 9.621,-5.738 10.368,-9.997 7.589,-9.257 8.145,-8.145 7.961,-9.812 9.996,-10.922 z"
         style="fill:none;stroke:#231f20;stroke-width:2.16;stroke-linecap:butt;stroke-linejoin:miter;stroke-miterlimit:2.6131;stroke-dasharray:none;stroke-opacity:1"
         id="path48" /><path
         d="m 744.469,1294.61 0.367,5 3.336,3.7 11.66,4.82 24.25,7.58 24.25,2.97 h 14.809 l 12.214,-2.6 11.477,-5.73 9.07,-8.89 0.559,-5 -1.113,-3.51 -3.887,-0.75 -5.922,0.75 -9.07,2.59 -8.516,2.59 -10.551,1.11 h -13.14 l -11.11,0.19 -9.812,-0.93 -10.918,-1.85 -8.703,-2.41 -8.516,-1.85 -5.555,-0.37 -3.882,0.55 -1.297,2.04 v 0"
         style="fill:#ffffff;fill-opacity:1;fill-rule:evenodd;stroke:none"
         id="path50" /><path
         d="m 744.469,1294.61 0.367,5 3.336,3.7 11.66,4.82 24.25,7.58 24.25,2.97 h 14.809 l 12.214,-2.6 11.477,-5.73 9.07,-8.89 0.559,-5 -1.113,-3.51 -3.887,-0.75 -5.922,0.75 -9.07,2.59 -8.516,2.59 -10.551,1.11 h -13.14 l -11.11,0.19 -9.812,-0.93 -10.918,-1.85 -8.703,-2.41 -8.516,-1.85 -5.555,-0.37 -3.882,0.55 -1.297,2.04 z"
         style="fill:none;stroke:#231f20;stroke-width:2.16;stroke-linecap:butt;stroke-linejoin:miter;stroke-miterlimit:2.6131;stroke-dasharray:none;stroke-opacity:1"
         id="path52" /><path
         d="m 1055.45,876.82 -3.52,-9.808 -1.48,-7.774 -2.96,-14.07 -0.92,-11.293 2.59,-3.145 5.36,-0.742 2.78,2.223 1.29,5.922 4.08,8.515 4.07,4.629 4.44,4.075 2.78,6.476 -0.74,10.922 -3.89,5.738 -2.22,2.039 h -5.18 l -3.89,-0.742 -2.59,-2.965 v 0"
         style="fill:#ffffff;fill-opacity:1;fill-rule:evenodd;stroke:none"
         id="path54" /><path
         d="m 1055.45,876.82 -3.52,-9.808 -1.48,-7.774 -2.96,-14.07 -0.92,-11.293 2.59,-3.145 5.36,-0.742 2.78,2.223 1.29,5.922 4.08,8.515 4.07,4.629 4.44,4.075 2.78,6.476 -0.74,10.922 -3.89,5.738 -2.22,2.039 h -5.18 l -3.89,-0.742 -2.59,-2.965 z"
         style="fill:none;stroke:#231f20;stroke-width:2.16;stroke-linecap:butt;stroke-linejoin:miter;stroke-miterlimit:2.6131;stroke-dasharray:none;stroke-opacity:1"
         id="path56" /><path
         d="m 1063.04,539.738 h -3.52 l -2.77,8.328 -0.19,9.442 2.03,12.957 4.63,17.773 7.59,10.922 6.85,8.516 6.11,0.734 1.67,-5.551 -3.71,-11.847 -5.18,-14.438 -2.59,-7.031 -4.81,-10.922 -3.7,-12.777 -1.11,-3.699 -1.3,-2.407 v 0"
         style="fill:#ffffff;fill-opacity:1;fill-rule:evenodd;stroke:none"
         id="path58" /><path
         d="m 1063.04,539.738 h -3.52 l -2.77,8.328 -0.19,9.442 2.03,12.957 4.63,17.773 7.59,10.922 6.85,8.516 6.11,0.734 1.67,-5.551 -3.71,-11.847 -5.18,-14.438 -2.59,-7.031 -4.81,-10.922 -3.7,-12.777 -1.11,-3.699 -1.3,-2.407 z"
         style="fill:none;stroke:#231f20;stroke-width:2.16;stroke-linecap:butt;stroke-linejoin:miter;stroke-miterlimit:2.6131;stroke-dasharray:none;stroke-opacity:1"
         id="path60" /><path
         d="m 1301.64,703.004 -4.44,-5.551 0.75,-8.887 7.77,-10.738 1.11,-11.656 1.85,-3.34 3.52,-0.922 3.88,2.223 1.12,5.18 1.85,5.738 0.74,6.113 v 8.141 l -1.11,6.109 -4.26,5.371 -3.71,3.328 -4.44,0.371 -4.63,-1.48 v 0"
         style="fill:#ffffff;fill-opacity:1;fill-rule:evenodd;stroke:none"
         id="path62" /><path
         d="m 1301.64,703.004 -4.44,-5.551 0.75,-8.887 7.77,-10.738 1.11,-11.656 1.85,-3.34 3.52,-0.922 3.88,2.223 1.12,5.18 1.85,5.738 0.74,6.113 v 8.141 l -1.11,6.109 -4.26,5.371 -3.71,3.328 -4.44,0.371 -4.63,-1.48 z"
         style="fill:none;stroke:#231f20;stroke-width:2.16;stroke-linecap:butt;stroke-linejoin:miter;stroke-miterlimit:2.6131;stroke-dasharray:none;stroke-opacity:1"
         id="path64" /><path
         d="m 961.23,86.0352 -7.585,-7.5899 -2.782,-5.5508 -0.922,-4.8164 0.739,-3.8828 2.406,-1.8515 h 2.223 l 5.183,1.1054 5.367,3.5196 3.329,5 2.777,5.3671 1.668,6.8477 -0.555,3.8906 -2.035,1.6641 -4.074,-0.1875 -5.739,-3.5156 v 0"
         style="fill:#ffffff;fill-opacity:1;fill-rule:evenodd;stroke:none"
         id="path66" /><path
         d="m 961.23,86.0352 -7.585,-7.5899 -2.782,-5.5508 -0.922,-4.8164 0.739,-3.8828 2.406,-1.8515 h 2.223 l 5.183,1.1054 5.367,3.5196 3.329,5 2.777,5.3671 1.668,6.8477 -0.555,3.8906 -2.035,1.6641 -4.074,-0.1875 -5.739,-3.5156 z"
         style="fill:none;stroke:#231f20;stroke-width:2.16;stroke-linecap:butt;stroke-linejoin:miter;stroke-miterlimit:2.6131;stroke-dasharray:none;stroke-opacity:1"
         id="path68" /><path
         d="m 1016.95,167.113 -6.3,-3.886 -3.14,-3.887 -0.37,-3.332 1.85,-3.332 3.15,-0.93 4.25,1.484 3.52,2.036 2.78,3.886 1.66,4.075 -0.56,3.332 -2.22,1.296 -4.62,-0.742 v 0"
         style="fill:#ffffff;fill-opacity:1;fill-rule:evenodd;stroke:none"
         id="path70" /><path
         d="m 1016.95,167.113 -6.3,-3.886 -3.14,-3.887 -0.37,-3.332 1.85,-3.332 3.15,-0.93 4.25,1.484 3.52,2.036 2.78,3.886 1.66,4.075 -0.56,3.332 -2.22,1.296 -4.62,-0.742 z"
         style="fill:none;stroke:#231f20;stroke-width:2.16;stroke-linecap:butt;stroke-linejoin:miter;stroke-miterlimit:2.6131;stroke-dasharray:none;stroke-opacity:1"
         id="path72" /><path
         d="m 1121.35,270.957 -25.55,-25.73 -21.1,-22.762 -14.99,-16.664 -0.74,-4.625 1.66,-2.778 3.52,-0.187 5.37,3.516 9.62,8.699 12.22,11.109 13.14,13.699 12.41,12.032 10.92,12.769 8.14,12.039 2.22,5.364 -2.22,2.777 -2.59,0.558 -7.22,-4.628 -4.81,-5.188 v 0"
         style="fill:#ffffff;fill-opacity:1;fill-rule:evenodd;stroke:none"
         id="path74" /><path
         d="m 1121.35,270.957 -25.55,-25.73 -21.1,-22.762 -14.99,-16.664 -0.74,-4.625 1.66,-2.778 3.52,-0.187 5.37,3.516 9.62,8.699 12.22,11.109 13.14,13.699 12.41,12.032 10.92,12.769 8.14,12.039 2.22,5.364 -2.22,2.777 -2.59,0.558 -7.22,-4.628 -4.81,-5.188 z"
         style="fill:none;stroke:#231f20;stroke-width:2.16;stroke-linecap:butt;stroke-linejoin:miter;stroke-miterlimit:2.6131;stroke-dasharray:none;stroke-opacity:1"
         id="path76" /><path
         d="m 1183.18,308.539 -3.71,-3.887 -1.11,-3.152 0.56,-3.145 2.59,-1.48 h 2.22 l 3.33,3.703 3.71,3.332 1.66,2.59 -0.18,2.039 -1.86,0.926 -4.07,0.18 -3.14,-1.106 v 0"
         style="fill:#ffffff;fill-opacity:1;fill-rule:evenodd;stroke:none"
         id="path78" /><path
         d="m 1183.18,308.539 -3.71,-3.887 -1.11,-3.152 0.56,-3.145 2.59,-1.48 h 2.22 l 3.33,3.703 3.71,3.332 1.66,2.59 -0.18,2.039 -1.86,0.926 -4.07,0.18 -3.14,-1.106 z"
         style="fill:none;stroke:#231f20;stroke-width:2.16;stroke-linecap:butt;stroke-linejoin:miter;stroke-miterlimit:2.6131;stroke-dasharray:none;stroke-opacity:1"
         id="path80" /><path
         d="m 1093.58,449.406 h -2.96 l -1.3,-1.664 -0.37,-5.558 v -9.254 l 1.85,-9.996 3.15,-7.219 6.67,-10.918 4.44,-6.484 2.4,-1.11 1.3,0.188 0.74,1.664 -1.66,8.515 -1.67,4.254 -0.19,3.153 -0.18,8.886 -2.04,11.102 -2.96,8.332 -4.07,4.812 -3.15,1.297 v 0"
         style="fill:#ffffff;fill-opacity:1;fill-rule:evenodd;stroke:none"
         id="path82" /><path
         d="m 1093.58,449.406 h -2.96 l -1.3,-1.664 -0.37,-5.558 v -9.254 l 1.85,-9.996 3.15,-7.219 6.67,-10.918 4.44,-6.484 2.4,-1.11 1.3,0.188 0.74,1.664 -1.66,8.515 -1.67,4.254 -0.19,3.153 -0.18,8.886 -2.04,11.102 -2.96,8.332 -4.07,4.812 -3.15,1.297 z"
         style="fill:none;stroke:#231f20;stroke-width:2.16;stroke-linecap:butt;stroke-linejoin:miter;stroke-miterlimit:2.6131;stroke-dasharray:none;stroke-opacity:1"
         id="path84" /><path
         d="m 670.609,461.805 -6.664,-1.293 -5.738,-1.852 -1.668,-2.406 -0.184,-3.332 2.965,-3.703 2.035,-1.664 4.442,-1.297 4.996,0.183 2.406,0.743 2.965,3.515 1.664,3.887 0.742,3.148 -0.558,2.778 -2.407,1.48 -4.996,-0.187 v 0"
         style="fill:#ffffff;fill-opacity:1;fill-rule:evenodd;stroke:none"
         id="path86" /><path
         d="m 670.609,461.805 -6.664,-1.293 -5.738,-1.852 -1.668,-2.406 -0.184,-3.332 2.965,-3.703 2.035,-1.664 4.442,-1.297 4.996,0.183 2.406,0.743 2.965,3.515 1.664,3.887 0.742,3.148 -0.558,2.778 -2.407,1.48 -4.996,-0.187 z"
         style="fill:none;stroke:#231f20;stroke-width:2.16;stroke-linecap:butt;stroke-linejoin:miter;stroke-miterlimit:2.6131;stroke-dasharray:none;stroke-opacity:1"
         id="path88" /><path
         d="m 860.16,440.707 -16.289,5.18 -2.406,-0.922 -0.555,-3.891 1.852,-3.519 12.398,-4.071 17.403,-5.367 22.027,-5.551 9.629,-0.742 9.996,-0.554 9.625,-1.668 10.918,-1.848 6.297,0.367 2.035,2.59 v 3.519 l -1.664,2.223 -5.742,1.481 -10.176,2.218 -12.59,0.926 -13.328,2.035 -15.363,1.672 -9.258,1.293 -7.59,1.664 -7.219,2.965 v 0"
         style="fill:#ffffff;fill-opacity:1;fill-rule:evenodd;stroke:none"
         id="path90" /><path
         d="m 860.16,440.707 -16.289,5.18 -2.406,-0.922 -0.555,-3.891 1.852,-3.519 12.398,-4.071 17.403,-5.367 22.027,-5.551 9.629,-0.742 9.996,-0.554 9.625,-1.668 10.918,-1.848 6.297,0.367 2.035,2.59 v 3.519 l -1.664,2.223 -5.742,1.481 -10.176,2.218 -12.59,0.926 -13.328,2.035 -15.363,1.672 -9.258,1.293 -7.59,1.664 -7.219,2.965 z"
         style="fill:none;stroke:#231f20;stroke-width:2.16;stroke-linecap:butt;stroke-linejoin:miter;stroke-miterlimit:2.6131;stroke-dasharray:none;stroke-opacity:1"
         id="path92" /><path
         d="m 1009.54,435.336 -5,-3.703 -0.92,-3.516 0.92,-3.148 2.97,-1.293 5.36,1.293 3.71,2.965 2.03,3.699 v 2.965 l -1.29,1.664 h -4.08 l -3.7,-0.926 v 0"
         style="fill:#ffffff;fill-opacity:1;fill-rule:evenodd;stroke:none"
         id="path94" /><path
         d="m 1009.54,435.336 -5,-3.703 -0.92,-3.516 0.92,-3.148 2.97,-1.293 5.36,1.293 3.71,2.965 2.03,3.699 v 2.965 l -1.29,1.664 h -4.08 l -3.7,-0.926 z"
         style="fill:none;stroke:#231f20;stroke-width:2.16;stroke-linecap:butt;stroke-linejoin:miter;stroke-miterlimit:2.6131;stroke-dasharray:none;stroke-opacity:1"
         id="path96" /><path
         d="m 510.488,787.785 -5.367,1.11 -2.223,-0.555 -0.925,-3.332 1.113,-5.738 2.777,-2.59 3.887,-0.742 3.145,2.406 0.554,3.699 -0.554,3.152 -2.407,2.59 v 0"
         style="fill:#ffffff;fill-opacity:1;fill-rule:evenodd;stroke:none"
         id="path98" /><path
         d="m 510.488,787.785 -5.367,1.11 -2.223,-0.555 -0.925,-3.332 1.113,-5.738 2.777,-2.59 3.887,-0.742 3.145,2.406 0.554,3.699 -0.554,3.152 -2.407,2.59 z"
         style="fill:none;stroke:#231f20;stroke-width:2.16;stroke-linecap:butt;stroke-linejoin:miter;stroke-miterlimit:2.6131;stroke-dasharray:none;stroke-opacity:1"
         id="path100" /><path
         d="m 401.648,1019.72 -2.039,-14.43 0.371,-14.626 2.223,-12.59 4.258,-13.324 4.254,-8.516 2.961,-6.476 1.851,-3.52 2.407,-2.039 h 1.296 l 1.11,1.668 0.93,4.996 -2.594,17.215 -1.852,10.555 -4.254,12.031 -3.519,11.286 -0.184,8.89 -2.039,8.7 -2.035,1.85 h -2.035 l -1.11,-1.67 v 0"
         style="fill:#ffffff;fill-opacity:1;fill-rule:evenodd;stroke:none"
         id="path102" /><path
         d="m 401.648,1019.72 -2.039,-14.43 0.371,-14.626 2.223,-12.59 4.258,-13.324 4.254,-8.516 2.961,-6.476 1.851,-3.52 2.407,-2.039 h 1.296 l 1.11,1.668 0.93,4.996 -2.594,17.215 -1.852,10.555 -4.254,12.031 -3.519,11.286 -0.184,8.89 -2.039,8.7 -2.035,1.85 h -2.035 l -1.11,-1.67 z"
         style="fill:none;stroke:#231f20;stroke-width:2.16;stroke-linecap:butt;stroke-linejoin:miter;stroke-miterlimit:2.6131;stroke-dasharray:none;stroke-opacity:1"
         id="path104" /><path
         d="m 556.395,1037.68 0.929,2.96 -0.742,3.71 -4.441,4.07 -8.516,3.88 -11.848,5.19 -10.179,4.99 -11.11,2.78 -6.476,2.41 -5.926,-0.19 4.445,-3.33 12.957,-7.77 11.477,-8.52 11.664,-7.22 4.996,-2.22 7.219,-1.11 5.551,0.37 v 0"
         style="fill:#ffffff;fill-opacity:1;fill-rule:evenodd;stroke:none"
         id="path106" /><path
         d="m 556.395,1037.68 0.929,2.96 -0.742,3.71 -4.441,4.07 -8.516,3.88 -11.848,5.19 -10.179,4.99 -11.11,2.78 -6.476,2.41 -5.926,-0.19 4.445,-3.33 12.957,-7.77 11.477,-8.52 11.664,-7.22 4.996,-2.22 7.219,-1.11 5.551,0.37 z"
         style="fill:none;stroke:#231f20;stroke-width:2.16;stroke-linecap:butt;stroke-linejoin:miter;stroke-miterlimit:2.6131;stroke-dasharray:none;stroke-opacity:1"
         id="path108" /><path
         d="m 394.055,1130.05 -5.551,-9.62 -0.188,-6.67 2.223,-1.85 3.332,1.3 3.332,4.63 2.223,5.18 1.664,3.89 v 5.55 l -2.594,1.67 -2.773,-1.3 -1.668,-2.78 v 0"
         style="fill:#ffffff;fill-opacity:1;fill-rule:evenodd;stroke:none"
         id="path110" /><path
         d="m 394.055,1130.05 -5.551,-9.62 -0.188,-6.67 2.223,-1.85 3.332,1.3 3.332,4.63 2.223,5.18 1.664,3.89 v 5.55 l -2.594,1.67 -2.773,-1.3 -1.668,-2.78 z"
         style="fill:none;stroke:#231f20;stroke-width:2.16;stroke-linecap:butt;stroke-linejoin:miter;stroke-miterlimit:2.6131;stroke-dasharray:none;stroke-opacity:1"
         id="path112" /><path
         d="m 924.023,1530.81 -6.476,-1.11 -8.516,-8.15 -16.476,-26.28 -17.399,-33.69 -9.812,-19.44 -10.922,-22.58 -13.324,-20.54 -3.332,-7.78 0.55,-2.78 3.52,-0.18 10.922,4.26 15.73,16.47 20.735,29.06 12.957,24.07 11.664,19.25 8.699,22.77 3.887,14.25 0.371,7.96 -2.778,4.44 v 0"
         style="fill:#ffffff;fill-opacity:1;fill-rule:evenodd;stroke:none"
         id="path114" /><path
         d="m 924.023,1530.81 -6.476,-1.11 -8.516,-8.15 -16.476,-26.28 -17.399,-33.69 -9.812,-19.44 -10.922,-22.58 -13.324,-20.54 -3.332,-7.78 0.55,-2.78 3.52,-0.18 10.922,4.26 15.73,16.47 20.735,29.06 12.957,24.07 11.664,19.25 8.699,22.77 3.887,14.25 0.371,7.96 -2.778,4.44 z"
         style="fill:none;stroke:#231f20;stroke-width:2.16;stroke-linecap:butt;stroke-linejoin:miter;stroke-miterlimit:2.6131;stroke-dasharray:none;stroke-opacity:1"
         id="path116" /><path
         d="m 616.004,1219.09 3.699,-1.48 1.113,-4.44 -2.777,-15.93 -7.773,-21.84 -6.852,-20.91 -12.031,-15 -6.11,-4.63 -6.476,-2.4 -3.703,2.59 -0.371,4.81 5.183,5.55 5.367,8.89 6.852,14.99 4.07,14.26 3.703,14.07 7.219,13.51 4.813,6.85 4.074,1.11 v 0"
         style="fill:#ffffff;fill-opacity:1;fill-rule:evenodd;stroke:none"
         id="path118" /><path
         d="m 616.004,1219.09 3.699,-1.48 1.113,-4.44 -2.777,-15.93 -7.773,-21.84 -6.852,-20.91 -12.031,-15 -6.11,-4.63 -6.476,-2.4 -3.703,2.59 -0.371,4.81 5.183,5.55 5.367,8.89 6.852,14.99 4.07,14.26 3.703,14.07 7.219,13.51 4.813,6.85 4.074,1.11 z"
         style="fill:none;stroke:#231f20;stroke-width:2.16;stroke-linecap:butt;stroke-linejoin:miter;stroke-miterlimit:2.6131;stroke-dasharray:none;stroke-opacity:1"
         id="path120" /><path
         d="m 394.98,1265.36 -7.773,-13.51 -3.519,-18.51 -0.922,-9.81 v -7.22 l 1.668,-3.7 4.812,1.3 8.883,13.69 4.996,16.29 3.887,14.44 0.187,10.18 -2.222,3.33 -5.922,-1.66 -4.075,-4.82 v 0"
         style="fill:#ffffff;fill-opacity:1;fill-rule:evenodd;stroke:none"
         id="path122" /><path
         d="m 394.98,1265.36 -7.773,-13.51 -3.519,-18.51 -0.922,-9.81 v -7.22 l 1.668,-3.7 4.812,1.3 8.883,13.69 4.996,16.29 3.887,14.44 0.187,10.18 -2.222,3.33 -5.922,-1.66 -4.075,-4.82 z"
         style="fill:none;stroke:#231f20;stroke-width:2.16;stroke-linecap:butt;stroke-linejoin:miter;stroke-miterlimit:2.6131;stroke-dasharray:none;stroke-opacity:1"
         id="path124" /><path
         d="m 493.09,1237.41 0.555,-4.07 2.218,-2.77 5,-5 5.371,-4.45 6.293,-3.51 4.442,-2.78 1.851,0.19 0.926,1.66 -0.187,3.15 -2.407,3.51 -3.886,4.63 -6.481,3.89 -4.07,3.7 -3.516,3.15 -3.148,0.56 -1.852,0.18 -1.109,-2.04 v 0"
         style="fill:#ffffff;fill-opacity:1;fill-rule:evenodd;stroke:none"
         id="path126" /><path
         d="m 493.09,1237.41 0.555,-4.07 2.218,-2.77 5,-5 5.371,-4.45 6.293,-3.51 4.442,-2.78 1.851,0.19 0.926,1.66 -0.187,3.15 -2.407,3.51 -3.886,4.63 -6.481,3.89 -4.07,3.7 -3.516,3.15 -3.148,0.56 -1.852,0.18 -1.109,-2.04 z"
         style="fill:none;stroke:#231f20;stroke-width:2.16;stroke-linecap:butt;stroke-linejoin:miter;stroke-miterlimit:2.6131;stroke-dasharray:none;stroke-opacity:1"
         id="path128" /><path
         d="m 437.742,1323.3 -9.258,-1.11 -4.441,-3.14 -1.48,-5 1.296,-3.7 5.184,-2.04 8.512,0.92 8.886,3.34 2.594,4.26 -0.187,3.14 -2.961,2.78 -3.332,0.93 -4.813,-0.38 v 0"
         style="fill:#ffffff;fill-opacity:1;fill-rule:evenodd;stroke:none"
         id="path130" /><path
         d="m 437.742,1323.3 -9.258,-1.11 -4.441,-3.14 -1.48,-5 1.296,-3.7 5.184,-2.04 8.512,0.92 8.886,3.34 2.594,4.26 -0.187,3.14 -2.961,2.78 -3.332,0.93 -4.813,-0.38 z"
         style="fill:none;stroke:#231f20;stroke-width:2.16;stroke-linecap:butt;stroke-linejoin:miter;stroke-miterlimit:2.6131;stroke-dasharray:none;stroke-opacity:1"
         id="path132" /><path
         d="m 899.961,1239.08 6.109,-1.67 1.852,-3.33 0.738,-7.4 0.926,-7.78 -1.852,-5.55 -3.886,-2.22 -9.442,-0.18 -6.293,1.47 -3.515,4.63 -2.965,3.7 v 5.93 l 4.629,5.92 7.035,5.55 6.664,0.93 v 0"
         style="fill:#ffffff;fill-opacity:1;fill-rule:evenodd;stroke:none"
         id="path134" /><path
         d="m 899.961,1239.08 6.109,-1.67 1.852,-3.33 0.738,-7.4 0.926,-7.78 -1.852,-5.55 -3.886,-2.22 -9.442,-0.18 -6.293,1.47 -3.515,4.63 -2.965,3.7 v 5.93 l 4.629,5.92 7.035,5.55 6.664,0.93 z"
         style="fill:none;stroke:#231f20;stroke-width:2.16;stroke-linecap:butt;stroke-linejoin:miter;stroke-miterlimit:2.6131;stroke-dasharray:none;stroke-opacity:1"
         id="path136" /><path
         d="m 739.656,1716.66 8.516,7.22 15.734,7.59 15.731,7.03 14.996,7.04 6.847,3.33 5.184,0.74 4.258,-0.93 3.332,-5.36 -2.223,-3.89 -4.258,-1.11 -5.179,-1.3 -5.742,-4.81 -12.77,-7.78 -17.586,-4.8 -10.922,-2.78 -10.551,-0.74 -5.367,0.55 v 0"
         style="fill:#ffffff;fill-opacity:1;fill-rule:evenodd;stroke:none"
         id="path138" /><path
         d="m 739.656,1716.66 8.516,7.22 15.734,7.59 15.731,7.03 14.996,7.04 6.847,3.33 5.184,0.74 4.258,-0.93 3.332,-5.36 -2.223,-3.89 -4.258,-1.11 -5.179,-1.3 -5.742,-4.81 -12.77,-7.78 -17.586,-4.8 -10.922,-2.78 -10.551,-0.74 -5.367,0.55 z"
         style="fill:none;stroke:#231f20;stroke-width:2.16;stroke-linecap:butt;stroke-linejoin:miter;stroke-miterlimit:2.6131;stroke-dasharray:none;stroke-opacity:1"
         id="path140" /><path
         d="m 708.184,1685.19 -2.774,-4.44 -0.371,-3.33 2.406,-2.78 2.961,-1.48 3.703,0.18 1.852,0.93 1.297,4.26 -0.371,4.81 -0.926,2.78 -2.59,0.56 h -2.965 l -2.222,-1.49 v 0"
         style="fill:#ffffff;fill-opacity:1;fill-rule:evenodd;stroke:none"
         id="path142" /><path
         d="m 708.184,1685.19 -2.774,-4.44 -0.371,-3.33 2.406,-2.78 2.961,-1.48 3.703,0.18 1.852,0.93 1.297,4.26 -0.371,4.81 -0.926,2.78 -2.59,0.56 h -2.965 l -2.222,-1.49 z"
         style="fill:none;stroke:#231f20;stroke-width:2.16;stroke-linecap:butt;stroke-linejoin:miter;stroke-miterlimit:2.6131;stroke-dasharray:none;stroke-opacity:1"
         id="path144" /><path
         d="m 744.469,1652.8 -2.594,-0.19 -2.035,-2.22 -0.371,-3.7 1.113,-2.96 2.035,-1.11 h 3.52 l 2.773,1.29 0.555,2.78 -0.922,3.33 -1.301,2.04 -2.773,0.74 v 0"
         style="fill:#ffffff;fill-opacity:1;fill-rule:evenodd;stroke:none"
         id="path146" /><path
         d="m 744.469,1652.8 -2.594,-0.19 -2.035,-2.22 -0.371,-3.7 1.113,-2.96 2.035,-1.11 h 3.52 l 2.773,1.29 0.555,2.78 -0.922,3.33 -1.301,2.04 -2.773,0.74 z"
         style="fill:none;stroke:#231f20;stroke-width:2.16;stroke-linecap:butt;stroke-linejoin:miter;stroke-miterlimit:2.6131;stroke-dasharray:none;stroke-opacity:1"
         id="path148" /><path
         d="m 852.57,1636.7 18.512,13.14 11.293,7.03 6.848,4.26 h 2.406 l 0.371,-5 -4.629,-3.7 -2.223,-7.59 -5.738,-8.89 -10.363,-4.99 -10.551,-2.41 h -9.441 l -1.664,3.15 2.406,3.33 2.773,1.67 v 0"
         style="fill:#ffffff;fill-opacity:1;fill-rule:evenodd;stroke:none"
         id="path150" /><path
         d="m 852.57,1636.7 18.512,13.14 11.293,7.03 6.848,4.26 h 2.406 l 0.371,-5 -4.629,-3.7 -2.223,-7.59 -5.738,-8.89 -10.363,-4.99 -10.551,-2.41 h -9.441 l -1.664,3.15 2.406,3.33 2.773,1.67 z"
         style="fill:none;stroke:#231f20;stroke-width:2.16;stroke-linecap:butt;stroke-linejoin:miter;stroke-miterlimit:2.6131;stroke-dasharray:none;stroke-opacity:1"
         id="path152" /><path
         d="m 914.953,1630.21 6.11,7.78 7.035,6.66 6.293,4.26 4.629,0.37 3.144,-2.04 v -5.73 l -1.664,-6.3 -7.035,-6.66 -8.328,-5.19 -8.516,-2.22 -4.074,1.3 -0.555,3.33 2.961,4.44 v 0"
         style="fill:#ffffff;fill-opacity:1;fill-rule:evenodd;stroke:none"
         id="path154" /><path
         d="m 914.953,1630.21 6.11,7.78 7.035,6.66 6.293,4.26 4.629,0.37 3.144,-2.04 v -5.73 l -1.664,-6.3 -7.035,-6.66 -8.328,-5.19 -8.516,-2.22 -4.074,1.3 -0.555,3.33 2.961,4.44 z"
         style="fill:none;stroke:#231f20;stroke-width:2.16;stroke-linecap:butt;stroke-linejoin:miter;stroke-miterlimit:2.6131;stroke-dasharray:none;stroke-opacity:1"
         id="path156" /><path
         d="m 916.063,1597.64 2.41,4.25 5.734,2.6 10,4.81 11.473,7.03 5.371,3.89 8.144,3.89 5.184,-1.3 v -5.55 l -2.035,-5 -7.223,-8.51 -9.992,-4.82 -10,-4.07 -10.367,-0.19 h -6.477 l -2.222,2.97 v 0"
         style="fill:#ffffff;fill-opacity:1;fill-rule:evenodd;stroke:none"
         id="path158" /><path
         d="m 916.063,1597.64 2.41,4.25 5.734,2.6 10,4.81 11.473,7.03 5.371,3.89 8.144,3.89 5.184,-1.3 v -5.55 l -2.035,-5 -7.223,-8.51 -9.992,-4.82 -10,-4.07 -10.367,-0.19 h -6.477 l -2.222,2.97 z"
         style="fill:none;stroke:#231f20;stroke-width:2.16;stroke-linecap:butt;stroke-linejoin:miter;stroke-miterlimit:2.6131;stroke-dasharray:none;stroke-opacity:1"
         id="path160" /><path
         d="m 896.07,1775.9 -5.922,-2.04 -1.296,-4.07 2.406,-4.44 6.48,0.36 5.367,2.04 3.887,4.45 -1.664,3.7 -5.183,1.85 -4.075,-1.85 v 0"
         style="fill:#ffffff;fill-opacity:1;fill-rule:evenodd;stroke:none"
         id="path162" /><path
         d="m 896.07,1775.9 -5.922,-2.04 -1.296,-4.07 2.406,-4.44 6.48,0.36 5.367,2.04 3.887,4.45 -1.664,3.7 -5.183,1.85 -4.075,-1.85 z"
         style="fill:none;stroke:#231f20;stroke-width:2.16;stroke-linecap:butt;stroke-linejoin:miter;stroke-miterlimit:2.6131;stroke-dasharray:none;stroke-opacity:1"
         id="path164" /><path
         d="m 1000.47,1809.77 -3.329,2.41 2.406,4.44 9.253,0.93 5,-1.67 3.89,-2.04 0.19,-3.33 -3.34,-1.48 -5.18,-0.37 -5,0.37 -3.89,0.74 v 0"
         style="fill:#ffffff;fill-opacity:1;fill-rule:evenodd;stroke:none"
         id="path166" /><path
         d="m 1000.47,1809.77 -3.329,2.41 2.406,4.44 9.253,0.93 5,-1.67 3.89,-2.04 0.19,-3.33 -3.34,-1.48 -5.18,-0.37 -5,0.37 -3.89,0.74 z"
         style="fill:none;stroke:#231f20;stroke-width:2.16;stroke-linecap:butt;stroke-linejoin:miter;stroke-miterlimit:2.6131;stroke-dasharray:none;stroke-opacity:1"
         id="path168" /><path
         d="m 1015.65,1788.67 5.37,0.19 4.07,-0.93 2.04,-1.3 -0.74,-2.03 -2.96,-3.52 -4.08,-0.37 -4.81,0.74 -2.77,1.3 -2.04,2.4 2.41,2.04 3.51,1.48 v 0"
         style="fill:#ffffff;fill-opacity:1;fill-rule:evenodd;stroke:none"
         id="path170" /><path
         d="m 1015.65,1788.67 5.37,0.19 4.07,-0.93 2.04,-1.3 -0.74,-2.03 -2.96,-3.52 -4.08,-0.37 -4.81,0.74 -2.77,1.3 -2.04,2.4 2.41,2.04 3.51,1.48 z"
         style="fill:none;stroke:#231f20;stroke-width:2.16;stroke-linecap:butt;stroke-linejoin:miter;stroke-miterlimit:2.6131;stroke-dasharray:none;stroke-opacity:1"
         id="path172" /><path
         d="m 1014.54,1693.52 9.81,4.08 8.52,4.44 8.88,5 6.85,2.4 4.08,1.11 4.07,6.11 -2.97,2.78 -5.73,-0.37 -6.85,-1.48 -7.59,-2.96 -5.37,-0.38 -0.74,4.07 0.74,7.78 -3.15,3.15 h -4.44 l -2.96,-3.7 -2.78,-3.71 -4.44,-4.81 -3.15,-7.96 v -7.03 l 1.48,-3.89 -0.37,-4.07 2.78,-0.93 3.33,0.37 v 0"
         style="fill:#ffffff;fill-opacity:1;fill-rule:evenodd;stroke:none"
         id="path174" /><path
         d="m 1014.54,1693.52 9.81,4.08 8.52,4.44 8.88,5 6.85,2.4 4.08,1.11 4.07,6.11 -2.97,2.78 -5.73,-0.37 -6.85,-1.48 -7.59,-2.96 -5.37,-0.38 -0.74,4.07 0.74,7.78 -3.15,3.15 h -4.44 l -2.96,-3.7 -2.78,-3.71 -4.44,-4.81 -3.15,-7.96 v -7.03 l 1.48,-3.89 -0.37,-4.07 2.78,-0.93 3.33,0.37 z"
         style="fill:none;stroke:#231f20;stroke-width:2.16;stroke-linecap:butt;stroke-linejoin:miter;stroke-miterlimit:2.6131;stroke-dasharray:none;stroke-opacity:1"
         id="path176" /><path
         d="m 1010.84,1312.38 4.81,0.37 4.07,-3.33 0.19,-2.78 -1.3,-1.66 -3.7,-1.11 -4.81,0.37 -3.15,3.14 0.74,2.78 3.15,2.22 v 0"
         style="fill:#ffffff;fill-opacity:1;fill-rule:evenodd;stroke:none"
         id="path178" /><path
         d="m 1010.84,1312.38 4.81,0.37 4.07,-3.33 0.19,-2.78 -1.3,-1.66 -3.7,-1.11 -4.81,0.37 -3.15,3.14 0.74,2.78 3.15,2.22 z"
         style="fill:none;stroke:#231f20;stroke-width:2.16;stroke-linecap:butt;stroke-linejoin:miter;stroke-miterlimit:2.6131;stroke-dasharray:none;stroke-opacity:1"
         id="path180" /><path
         d="m 1018.61,1323.12 h 5.55 l 3.71,4.07 -0.37,2.97 -3.71,2.4 h -3.88 l -2.96,-0.93 -1.3,-2.77 v -4.07 l 2.96,-1.67 v 0"
         style="fill:#ffffff;fill-opacity:1;fill-rule:evenodd;stroke:none"
         id="path182" /><path
         d="m 1018.61,1323.12 h 5.55 l 3.71,4.07 -0.37,2.97 -3.71,2.4 h -3.88 l -2.96,-0.93 -1.3,-2.77 v -4.07 l 2.96,-1.67 z"
         style="fill:none;stroke:#231f20;stroke-width:2.16;stroke-linecap:butt;stroke-linejoin:miter;stroke-miterlimit:2.6131;stroke-dasharray:none;stroke-opacity:1"
         id="path184" /><path
         d="m 1024.72,1358.11 4.08,0.73 h 3.88 l 2.41,-2.03 0.55,-3.15 -1.29,-2.59 -3.71,-1.85 -3.88,-0.56 -4.07,0.93 -1.3,2.78 v 3.33 l 3.33,2.41 v 0"
         style="fill:#ffffff;fill-opacity:1;fill-rule:evenodd;stroke:none"
         id="path186" /><path
         d="m 1024.72,1358.11 4.08,0.73 h 3.88 l 2.41,-2.03 0.55,-3.15 -1.29,-2.59 -3.71,-1.85 -3.88,-0.56 -4.07,0.93 -1.3,2.78 v 3.33 l 3.33,2.41 z"
         style="fill:none;stroke:#231f20;stroke-width:2.16;stroke-linecap:butt;stroke-linejoin:miter;stroke-miterlimit:2.6131;stroke-dasharray:none;stroke-opacity:1"
         id="path188" /><path
         d="m 1028.98,1373.29 5.55,-0.19 5,1.48 2.04,3.15 -1.48,3.88 -4.08,2.04 -4.81,-0.74 -4.44,-2.04 -0.93,-3.33 0.19,-2.22 2.96,-2.03 v 0"
         style="fill:#ffffff;fill-opacity:1;fill-rule:evenodd;stroke:none"
         id="path190" /><path
         d="m 1028.98,1373.29 5.55,-0.19 5,1.48 2.04,3.15 -1.48,3.88 -4.08,2.04 -4.81,-0.74 -4.44,-2.04 -0.93,-3.33 0.19,-2.22 2.96,-2.03 z"
         style="fill:none;stroke:#231f20;stroke-width:2.16;stroke-linecap:butt;stroke-linejoin:miter;stroke-miterlimit:2.6131;stroke-dasharray:none;stroke-opacity:1"
         id="path192" /><path
         d="m 1040.09,1412.53 5.73,1.67 h 4.45 l 2.03,-2.41 -0.74,-4.26 -2.77,-3.7 -2.59,-3.34 -5.19,-1.11 h -5.18 l -4.44,2.23 -0.37,3.51 3.14,3.33 2.41,2.78 3.52,1.3 v 0"
         style="fill:#ffffff;fill-opacity:1;fill-rule:evenodd;stroke:none"
         id="path194" /><path
         d="m 1040.09,1412.53 5.73,1.67 h 4.45 l 2.03,-2.41 -0.74,-4.26 -2.77,-3.7 -2.59,-3.34 -5.19,-1.11 h -5.18 l -4.44,2.23 -0.37,3.51 3.14,3.33 2.41,2.78 3.52,1.3 z"
         style="fill:none;stroke:#231f20;stroke-width:2.16;stroke-linecap:butt;stroke-linejoin:miter;stroke-miterlimit:2.6131;stroke-dasharray:none;stroke-opacity:1"
         id="path196" /><path
         d="m 1045.82,1441.77 5.74,0.75 5.19,-1.12 2.22,-3.14 v -3.15 l -2.41,-3.89 -4.26,-0.74 -4.44,-1.11 -5.55,0.19 -2.41,2.78 0.37,4.07 1.85,2.77 3.7,2.59 v 0"
         style="fill:#ffffff;fill-opacity:1;fill-rule:evenodd;stroke:none"
         id="path198" /><path
         d="m 1045.82,1441.77 5.74,0.75 5.19,-1.12 2.22,-3.14 v -3.15 l -2.41,-3.89 -4.26,-0.74 -4.44,-1.11 -5.55,0.19 -2.41,2.78 0.37,4.07 1.85,2.77 3.7,2.59 z"
         style="fill:none;stroke:#231f20;stroke-width:2.16;stroke-linecap:butt;stroke-linejoin:miter;stroke-miterlimit:2.6131;stroke-dasharray:none;stroke-opacity:1"
         id="path200" /><path
         d="m 1051.01,1451.59 h 5.55 l 4.44,1.48 5.74,2.4 0.74,4.82 -2.03,3.88 -4.82,1.67 -4.99,-0.19 -3.52,-1.48 -3.15,-1.66 -3.7,-3.33 -0.74,-3.52 1.48,-2.78 2.78,-0.92 2.22,-0.37 v 0"
         style="fill:#ffffff;fill-opacity:1;fill-rule:evenodd;stroke:none"
         id="path202" /><path
         d="m 1051.01,1451.59 h 5.55 l 4.44,1.48 5.74,2.4 0.74,4.82 -2.03,3.88 -4.82,1.67 -4.99,-0.19 -3.52,-1.48 -3.15,-1.66 -3.7,-3.33 -0.74,-3.52 1.48,-2.78 2.78,-0.92 2.22,-0.37 z"
         style="fill:none;stroke:#231f20;stroke-width:2.16;stroke-linecap:butt;stroke-linejoin:miter;stroke-miterlimit:2.6131;stroke-dasharray:none;stroke-opacity:1"
         id="path204" /><path
         d="m 332.602,981.594 4.812,-0.559 1.293,-4.812 -3.328,-4.071 -5.555,1.297 -2.777,5.367 5.555,2.778 v 0"
         style="fill:#ffffff;fill-opacity:1;fill-rule:evenodd;stroke:none"
         id="path206" /><path
         d="m 332.602,981.594 4.812,-0.559 1.293,-4.812 -3.328,-4.071 -5.555,1.297 -2.777,5.367 5.555,2.778 z"
         style="fill:none;stroke:#231f20;stroke-width:2.16;stroke-linecap:butt;stroke-linejoin:miter;stroke-miterlimit:2.6131;stroke-dasharray:none;stroke-opacity:1"
         id="path208" /><path
         d="m 1047.12,1486.02 8.88,4.62 4.26,0.93 5.19,-0.56 2.03,-1.85 v -2.03 l -2.03,-3.34 -3.52,-2.96 -5.18,-1.85 -6.11,-0.55 -5,0.74 -1.3,2.96 0.74,2.41 2.04,1.48 v 0"
         style="fill:#ffffff;fill-opacity:1;fill-rule:evenodd;stroke:none"
         id="path210" /><path
         d="m 1047.12,1486.02 8.88,4.62 4.26,0.93 5.19,-0.56 2.03,-1.85 v -2.03 l -2.03,-3.34 -3.52,-2.96 -5.18,-1.85 -6.11,-0.55 -5,0.74 -1.3,2.96 0.74,2.41 2.04,1.48 z"
         style="fill:none;stroke:#231f20;stroke-width:2.16;stroke-linecap:butt;stroke-linejoin:miter;stroke-miterlimit:2.6131;stroke-dasharray:none;stroke-opacity:1"
         id="path212" /><path
         d="m 1055.08,1500.82 6.48,2.78 2.59,2.96 1.3,2.97 v 2.77 l -1.11,1.67 -2.78,0.18 -3.89,-0.37 -3.89,-0.92 -3.33,-2.04 -1.66,-2.04 -0.56,-3.51 0.74,-3.15 2.96,-0.92 3.15,-0.38 v 0"
         style="fill:#ffffff;fill-opacity:1;fill-rule:evenodd;stroke:none"
         id="path214" /><path
         d="m 1055.08,1500.82 6.48,2.78 2.59,2.96 1.3,2.97 v 2.77 l -1.11,1.67 -2.78,0.18 -3.89,-0.37 -3.89,-0.92 -3.33,-2.04 -1.66,-2.04 -0.56,-3.51 0.74,-3.15 2.96,-0.92 3.15,-0.38 z"
         style="fill:none;stroke:#231f20;stroke-width:2.16;stroke-linecap:butt;stroke-linejoin:miter;stroke-miterlimit:2.6131;stroke-dasharray:none;stroke-opacity:1"
         id="path216" /><path
         d="m 1056.56,1526.37 5.55,2.03 4.08,2.78 0.92,2.41 0.56,4.07 -0.93,2.59 -2.59,0.74 -3.89,-0.18 -4.62,-0.93 -3.15,-2.22 -2.22,-2.22 -0.38,-3.7 0.56,-2.96 2.96,-1.67 3.15,-0.74 v 0"
         style="fill:#ffffff;fill-opacity:1;fill-rule:evenodd;stroke:none"
         id="path218" /><path
         d="m 1056.56,1526.37 5.55,2.03 4.08,2.78 0.92,2.41 0.56,4.07 -0.93,2.59 -2.59,0.74 -3.89,-0.18 -4.62,-0.93 -3.15,-2.22 -2.22,-2.22 -0.38,-3.7 0.56,-2.96 2.96,-1.67 3.15,-0.74 z"
         style="fill:none;stroke:#231f20;stroke-width:2.16;stroke-linecap:butt;stroke-linejoin:miter;stroke-miterlimit:2.6131;stroke-dasharray:none;stroke-opacity:1"
         id="path220" /><path
         d="m 1056.56,1592.45 4.63,0.19 2.77,-0.93 0.74,-2.41 -1.48,-2.4 -2.4,-2.59 -3.89,-0.93 h -4.07 l -2.59,2.41 v 2.77 l 2.41,2.41 3.88,1.48 v 0"
         style="fill:#ffffff;fill-opacity:1;fill-rule:evenodd;stroke:none"
         id="path222" /><path
         d="m 1056.56,1592.45 4.63,0.19 2.77,-0.93 0.74,-2.41 -1.48,-2.4 -2.4,-2.59 -3.89,-0.93 h -4.07 l -2.59,2.41 v 2.77 l 2.41,2.41 3.88,1.48 z"
         style="fill:none;stroke:#231f20;stroke-width:2.16;stroke-linecap:butt;stroke-linejoin:miter;stroke-miterlimit:2.6131;stroke-dasharray:none;stroke-opacity:1"
         id="path224" /><path
         d="m 1056.93,1552.66 5.74,2.77 4.44,3.89 0.37,5.73 -0.37,3.52 -2.96,1.67 -3.33,0.92 -2.78,-0.18 -1.48,-1.85 -0.74,-2.59 -0.74,-3.33 -1.67,-1.12 h -3.14 l -0.93,-1.85 0.37,-3.33 2.41,-2.96 2.4,-0.92 2.41,-0.37 v 0"
         style="fill:#ffffff;fill-opacity:1;fill-rule:evenodd;stroke:none"
         id="path226" /><path
         d="m 1056.93,1552.66 5.74,2.77 4.44,3.89 0.37,5.73 -0.37,3.52 -2.96,1.67 -3.33,0.92 -2.78,-0.18 -1.48,-1.85 -0.74,-2.59 -0.74,-3.33 -1.67,-1.12 h -3.14 l -0.93,-1.85 0.37,-3.33 2.41,-2.96 2.4,-0.92 2.41,-0.37 z"
         style="fill:none;stroke:#231f20;stroke-width:2.16;stroke-linecap:butt;stroke-linejoin:miter;stroke-miterlimit:2.6131;stroke-dasharray:none;stroke-opacity:1"
         id="path228" /><path
         d="m 1057.67,1612.45 4.08,2.77 4.25,-0.18 2.59,-3.15 -0.55,-3.15 -2.04,-2.78 -3.33,-1.29 -3.15,-0.74 -2.77,-0.37 -3.71,0.37 -0.92,2.22 0.92,2.96 2.23,2.04 2.4,1.3 v 0"
         style="fill:#ffffff;fill-opacity:1;fill-rule:evenodd;stroke:none"
         id="path230" /><path
         d="m 1057.67,1612.45 4.08,2.77 4.25,-0.18 2.59,-3.15 -0.55,-3.15 -2.04,-2.78 -3.33,-1.29 -3.15,-0.74 -2.77,-0.37 -3.71,0.37 -0.92,2.22 0.92,2.96 2.23,2.04 2.4,1.3 z"
         style="fill:none;stroke:#231f20;stroke-width:2.16;stroke-linecap:butt;stroke-linejoin:miter;stroke-miterlimit:2.6131;stroke-dasharray:none;stroke-opacity:1"
         id="path232" /><path
         d="m 1058.41,1627.25 3.34,1.3 3.51,3.15 0.19,2.96 -0.38,3.14 -2.21,1.3 -3.52,-0.56 -2.22,-1.29 -2.41,-2.59 -0.19,-3.15 v -2.96 l 1.67,-0.92 2.22,-0.38 v 0"
         style="fill:#ffffff;fill-opacity:1;fill-rule:evenodd;stroke:none"
         id="path234" /><path
         d="m 1058.41,1627.25 3.34,1.3 3.51,3.15 0.19,2.96 -0.38,3.14 -2.21,1.3 -3.52,-0.56 -2.22,-1.29 -2.41,-2.59 -0.19,-3.15 v -2.96 l 1.67,-0.92 2.22,-0.38 z"
         style="fill:none;stroke:#231f20;stroke-width:2.16;stroke-linecap:butt;stroke-linejoin:miter;stroke-miterlimit:2.6131;stroke-dasharray:none;stroke-opacity:1"
         id="path236" /><path
         d="m 1050.45,1656.87 2.23,1.11 2.96,0.18 2.4,-1.47 0.55,-2.23 -0.92,-3.33 -2.4,-1.85 -2.23,-1.29 -2.96,-0.37 -2.4,1.47 -0.56,2.6 1.11,2.22 2.22,2.96 v 0"
         style="fill:#ffffff;fill-opacity:1;fill-rule:evenodd;stroke:none"
         id="path238" /><path
         d="m 1050.45,1656.87 2.23,1.11 2.96,0.18 2.4,-1.47 0.55,-2.23 -0.92,-3.33 -2.4,-1.85 -2.23,-1.29 -2.96,-0.37 -2.4,1.47 -0.56,2.6 1.11,2.22 2.22,2.96 z"
         style="fill:none;stroke:#231f20;stroke-width:2.16;stroke-linecap:butt;stroke-linejoin:miter;stroke-miterlimit:2.6131;stroke-dasharray:none;stroke-opacity:1"
         id="path240" /></g></g></svg>
